<svg width="5623" height="1156" viewBox="0 0 5623 1156" fill="none" xmlns="http://www.w3.org/2000/svg">
<path fill-rule="evenodd" clip-rule="evenodd" d="M35.7932 282.005C34.2837 277.751 34.9557 273.047 37.5941 269.368C40.2358 265.692 44.5162 263.511 49.0846 263.501C176.95 263.335 882.14 262.418 974.547 262.3C976.944 262.29 979.219 263.377 980.702 265.248C982.185 267.112 982.708 269.544 982.132 271.842C965.937 336.31 873.325 704.922 873.325 704.922C873.325 704.922 282.705 709.401 197.941 710.044C191.913 710.087 186.52 706.352 184.527 700.734C164.754 645.067 62.7865 357.997 35.7932 282.005Z" fill="white"/>
<path d="M35.7932 282.005C34.2837 277.751 34.9557 273.047 37.5941 269.368C40.2358 265.692 44.5162 263.511 49.0846 263.501C176.95 263.335 882.14 262.417 974.548 262.3C976.944 262.29 979.219 263.377 980.702 265.248C982.185 267.112 982.708 269.544 982.132 271.842C965.937 336.31 873.325 704.922 873.325 704.922C873.325 704.922 282.705 709.401 197.941 710.044C191.913 710.087 186.52 706.352 184.527 700.734C164.754 645.067 62.7865 357.997 35.7932 282.005Z" stroke="#262626" stroke-width="70" stroke-miterlimit="10" stroke-linecap="round" stroke-linejoin="round"/>
<path d="M1290.52 39.9817L1041.93 35L843.451 831.531L172.156 838.533" stroke="#262626" stroke-width="70" stroke-miterlimit="10" stroke-linecap="round" stroke-linejoin="round"/>
<path fill-rule="evenodd" clip-rule="evenodd" d="M713.087 942.574C653.585 942.574 605.279 990.21 605.279 1048.89C605.279 1107.56 653.585 1155.2 713.087 1155.2C772.588 1155.2 820.894 1107.56 820.894 1048.89C820.894 990.21 772.588 942.574 713.087 942.574Z" fill="#262626"/>
<path fill-rule="evenodd" clip-rule="evenodd" d="M303.018 942.574C243.519 942.574 195.21 990.21 195.21 1048.89C195.21 1107.56 243.519 1155.2 303.018 1155.2C362.519 1155.2 410.828 1107.56 410.828 1048.89C410.828 990.21 362.519 942.574 303.018 942.574Z" fill="#262626"/>
<path d="M1227.21 371.603L1093.05 370.307" stroke="#262626" stroke-width="70" stroke-miterlimit="10" stroke-linecap="round" stroke-linejoin="round"/>
<path d="M1180.06 711.951L982.022 710.028" stroke="#262626" stroke-width="70" stroke-miterlimit="10" stroke-linecap="round" stroke-linejoin="round"/>
<path d="M1385 546.644L1034.63 543.253" stroke="#262626" stroke-width="70" stroke-miterlimit="10" stroke-linecap="round" stroke-linejoin="round"/>
<path d="M2012.26 668.871V726H1823.06V668.871H2012.26ZM1846.98 370.531V726H1773.74V370.531H1846.98ZM1987.61 515.307V570.971H1823.06V515.307H1987.61ZM2012.02 370.531V427.904H1823.06V370.531H2012.02ZM2261.04 608.08H2334.04C2332.58 632.006 2325.99 653.246 2314.27 671.801C2302.71 690.356 2286.52 704.841 2265.68 715.258C2245.01 725.675 2220.11 730.883 2190.98 730.883C2168.19 730.883 2147.76 726.977 2129.7 719.164C2111.63 711.189 2096.17 699.796 2083.31 684.984C2070.61 670.173 2060.93 652.27 2054.26 631.273C2047.58 610.277 2044.25 586.759 2044.25 560.717V536.059C2044.25 510.017 2047.66 486.498 2054.5 465.502C2061.5 444.343 2071.43 426.358 2084.29 411.547C2097.31 396.736 2112.85 385.343 2130.92 377.367C2148.98 369.392 2169.17 365.404 2191.46 365.404C2221.09 365.404 2246.07 370.775 2266.41 381.518C2286.92 392.26 2302.79 407.071 2314.02 425.951C2325.42 444.831 2332.25 466.316 2334.53 490.404H2261.29C2260.47 476.081 2257.63 463.956 2252.74 454.027C2247.86 443.936 2240.45 436.368 2230.53 431.322C2220.76 426.114 2207.74 423.51 2191.46 423.51C2179.26 423.51 2168.6 425.788 2159.48 430.346C2150.37 434.903 2142.72 441.82 2136.53 451.098C2130.35 460.375 2125.71 472.094 2122.62 486.254C2119.69 500.251 2118.22 516.69 2118.22 535.57V560.717C2118.22 579.109 2119.6 595.303 2122.37 609.301C2125.14 623.135 2129.37 634.854 2135.07 644.457C2140.93 653.897 2148.41 661.059 2157.53 665.941C2166.81 670.662 2177.95 673.022 2190.98 673.022C2206.27 673.022 2218.89 670.58 2228.82 665.697C2238.75 660.815 2246.31 653.572 2251.52 643.969C2256.89 634.366 2260.07 622.403 2261.04 608.08ZM2674.13 539.965V556.811C2674.13 583.829 2670.47 608.08 2663.14 629.565C2655.82 651.049 2645.48 669.359 2632.14 684.496C2618.79 699.47 2602.84 710.945 2584.29 718.92C2565.89 726.895 2545.47 730.883 2523.01 730.883C2500.71 730.883 2480.28 726.895 2461.73 718.92C2443.34 710.945 2427.38 699.47 2413.88 684.496C2400.37 669.359 2389.87 651.049 2382.38 629.565C2375.06 608.08 2371.4 583.829 2371.4 556.811V539.965C2371.4 512.784 2375.06 488.533 2382.38 467.211C2389.71 445.727 2400.04 427.416 2413.39 412.279C2426.9 397.143 2442.85 385.587 2461.24 377.611C2479.79 369.636 2500.22 365.648 2522.52 365.648C2544.98 365.648 2565.41 369.636 2583.8 377.611C2602.35 385.587 2618.3 397.143 2631.65 412.279C2645.16 427.416 2655.57 445.727 2662.9 467.211C2670.39 488.533 2674.13 512.784 2674.13 539.965ZM2600.15 556.811V539.477C2600.15 520.596 2598.45 503.995 2595.03 489.672C2591.61 475.349 2586.56 463.305 2579.89 453.539C2573.22 443.773 2565.08 436.449 2555.48 431.566C2545.87 426.521 2534.89 423.998 2522.52 423.998C2510.15 423.998 2499.16 426.521 2489.56 431.566C2480.12 436.449 2472.06 443.773 2465.39 453.539C2458.88 463.305 2453.91 475.349 2450.5 489.672C2447.08 503.995 2445.37 520.596 2445.37 539.477V556.811C2445.37 575.528 2447.08 592.13 2450.5 606.615C2453.91 620.938 2458.96 633.064 2465.63 642.992C2472.31 652.758 2480.44 660.163 2490.05 665.209C2499.65 670.255 2510.64 672.777 2523.01 672.777C2535.38 672.777 2546.36 670.255 2555.97 665.209C2565.57 660.163 2573.63 652.758 2580.14 642.992C2586.65 633.064 2591.61 620.938 2595.03 606.615C2598.45 592.13 2600.15 575.528 2600.15 556.811ZM2760.31 370.531H2822.32L2913.63 631.518L3004.94 370.531H3066.95L2938.53 726H2888.73L2760.31 370.531ZM2726.86 370.531H2788.63L2799.86 624.926V726H2726.86V370.531ZM3038.63 370.531H3100.64V726H3027.4V624.926L3038.63 370.531ZM3198.3 370.531H3260.31L3351.62 631.518L3442.93 370.531H3504.94L3376.52 726H3326.72L3198.3 370.531ZM3164.85 370.531H3226.62L3237.85 624.926V726H3164.85V370.531ZM3476.62 370.531H3538.63V726H3465.39V624.926L3476.62 370.531ZM3841.37 668.871V726H3652.16V668.871H3841.37ZM3676.08 370.531V726H3602.84V370.531H3676.08ZM3816.71 515.307V570.971H3652.16V515.307H3816.71ZM3841.12 370.531V427.904H3652.16V370.531H3841.12ZM3884.09 370.531H4016.66C4043.84 370.531 4067.2 374.6 4086.73 382.738C4106.42 390.876 4121.56 402.921 4132.14 418.871C4142.72 434.822 4148.01 454.434 4148.01 477.709C4148.01 496.752 4144.75 513.109 4138.24 526.781C4131.89 540.29 4122.86 551.602 4111.14 560.717C4099.59 569.669 4085.99 576.83 4070.37 582.201L4047.18 594.408H3931.94L3931.45 537.279H4017.15C4030.01 537.279 4040.67 535.001 4049.13 530.443C4057.59 525.886 4063.94 519.538 4068.17 511.4C4072.57 503.262 4074.76 493.822 4074.76 483.08C4074.76 471.687 4072.65 461.84 4068.42 453.539C4064.18 445.238 4057.76 438.891 4049.13 434.496C4040.5 430.102 4029.68 427.904 4016.66 427.904H3957.33V726H3884.09V370.531ZM4082.82 726L4001.77 567.553L4079.16 567.065L4161.19 722.582V726H4082.82ZM4410.46 608.08H4483.46C4481.99 632.006 4475.4 653.246 4463.68 671.801C4452.12 690.356 4435.93 704.841 4415.1 715.258C4394.43 725.675 4369.52 730.883 4340.39 730.883C4317.6 730.883 4297.18 726.977 4279.11 719.164C4261.04 711.189 4245.58 699.796 4232.72 684.984C4220.03 670.173 4210.34 652.27 4203.67 631.273C4197 610.277 4193.66 586.759 4193.66 560.717V536.059C4193.66 510.017 4197.08 486.498 4203.91 465.502C4210.91 444.343 4220.84 426.358 4233.7 411.547C4246.72 396.736 4262.26 385.343 4280.33 377.367C4298.4 369.392 4318.58 365.404 4340.88 365.404C4370.5 365.404 4395.48 370.775 4415.83 381.518C4436.34 392.26 4452.21 407.071 4463.44 425.951C4474.83 444.831 4481.67 466.316 4483.94 490.404H4410.7C4409.89 476.081 4407.04 463.956 4402.16 454.027C4397.27 443.936 4389.87 436.368 4379.94 431.322C4370.17 426.114 4357.15 423.51 4340.88 423.51C4328.67 423.51 4318.01 425.788 4308.9 430.346C4299.78 434.903 4292.13 441.82 4285.95 451.098C4279.76 460.375 4275.12 472.094 4272.03 486.254C4269.1 500.251 4267.64 516.69 4267.64 535.57V560.717C4267.64 579.109 4269.02 595.303 4271.79 609.301C4274.55 623.135 4278.78 634.854 4284.48 644.457C4290.34 653.897 4297.83 661.059 4306.94 665.941C4316.22 670.662 4327.37 673.022 4340.39 673.022C4355.69 673.022 4368.3 670.58 4378.23 665.697C4388.16 660.815 4395.73 653.572 4400.94 643.969C4406.31 634.366 4409.48 622.403 4410.46 608.08ZM4770.08 668.871V726H4580.87V668.871H4770.08ZM4604.79 370.531V726H4531.55V370.531H4604.79ZM4745.42 515.307V570.971H4580.87V515.307H4745.42ZM4769.83 370.531V427.904H4580.87V370.531H4769.83ZM4811.82 692.065C4811.82 681.648 4815.41 672.94 4822.57 665.941C4829.89 658.943 4839.58 655.443 4851.62 655.443C4863.66 655.443 4873.27 658.943 4880.43 665.941C4887.75 672.94 4891.41 681.648 4891.41 692.065C4891.41 702.481 4887.75 711.189 4880.43 718.188C4873.27 725.186 4863.66 728.686 4851.62 728.686C4839.58 728.686 4829.89 725.186 4822.57 718.188C4815.41 711.189 4811.82 702.481 4811.82 692.065ZM5102.35 431.322L5005.67 726H4927.79L5059.87 370.531H5109.43L5102.35 431.322ZM5182.67 726L5085.75 431.322L5077.94 370.531H5127.99L5260.8 726H5182.67ZM5178.28 593.676V651.049H4990.54V593.676H5178.28ZM5581.36 539.965V556.811C5581.36 583.829 5577.69 608.08 5570.37 629.565C5563.05 651.049 5552.71 669.359 5539.36 684.496C5526.02 699.47 5510.07 710.945 5491.51 718.92C5473.12 726.895 5452.69 730.883 5430.23 730.883C5407.93 730.883 5387.51 726.895 5368.95 718.92C5350.56 710.945 5334.61 699.47 5321.1 684.496C5307.59 669.359 5297.1 651.049 5289.61 629.565C5282.28 608.08 5278.62 583.829 5278.62 556.811V539.965C5278.62 512.784 5282.28 488.533 5289.61 467.211C5296.93 445.727 5307.27 427.416 5320.61 412.279C5334.12 397.143 5350.07 385.587 5368.47 377.611C5387.02 369.636 5407.45 365.648 5429.74 365.648C5452.21 365.648 5472.63 369.636 5491.02 377.611C5509.58 385.587 5525.53 397.143 5538.88 412.279C5552.38 427.416 5562.8 445.727 5570.13 467.211C5577.61 488.533 5581.36 512.784 5581.36 539.965ZM5507.38 556.811V539.477C5507.38 520.596 5505.67 503.995 5502.25 489.672C5498.84 475.349 5493.79 463.305 5487.12 453.539C5480.44 443.773 5472.31 436.449 5462.7 431.566C5453.1 426.521 5442.11 423.998 5429.74 423.998C5417.38 423.998 5406.39 426.521 5396.79 431.566C5387.35 436.449 5379.29 443.773 5372.62 453.539C5366.11 463.305 5361.14 475.349 5357.72 489.672C5354.31 503.995 5352.6 520.596 5352.6 539.477V556.811C5352.6 575.528 5354.31 592.13 5357.72 606.615C5361.14 620.938 5366.19 633.064 5372.86 642.992C5379.53 652.758 5387.67 660.163 5397.27 665.209C5406.88 670.255 5417.86 672.777 5430.23 672.777C5442.6 672.777 5453.59 670.255 5463.19 665.209C5472.79 660.163 5480.85 652.758 5487.36 642.992C5493.87 633.064 5498.84 620.938 5502.25 606.615C5505.67 592.13 5507.38 575.528 5507.38 556.811Z" fill="black"/>
</svg>
